# xmcd
#
# Track frame offsets: 
#        150
#        12145
#        22106
#        44858
#        56711
#        73354
#        88310
#        104107
#        117975
#        131078
#        144435
#        158462
#        169940
#        184180
#        196390
#        210572
#        223665
#        238986
#        250924
#        262871
#
# Disc length: 3679 seconds
#
# Revision: 0
# Processed by: cddbd v1.5.2PL0 Copyright (c) Steve Scherf et al.
# Submitted via: ExactAudioCopy v0.99pb4
#
DISCID=3b0e5d14
DTITLE=O.B. McClinton - Just For You and The Only One
DYEAR=1988
DGENRE=Country
TTITLE0=Back To Senatobia
TTITLE1=Table For Two
TTITLE2=The Back Road Into Town
TTITLE3=Me Or Mike
TTITLE4=Takin' A Rest
TTITLE5=Robot Man
TTITLE6=Love Connection
TTITLE7=New York Times
TTITLE8=Which Hand Do You Take?
TTITLE9=Honky Tonk Tan
TTITLE10=Turn The Music On
TTITLE11=The Only One
TTITLE12=Love Break
TTITLE13=My E.S.P.
TTITLE14=Still A Wanted Man
TTITLE15=(Country Music Is) American Soul
TTITLE16=Love Is Like A Leaf In The Wind
TTITLE17=Good Morning Love Look
TTITLE18=I Love Your Face
TTITLE19=I Won't Let You Get Over Me
EXTD=
EXTT0=
EXTT1=
EXTT2=
EXTT3=
EXTT4=
EXTT5=
EXTT6=
EXTT7=
EXTT8=
EXTT9=
EXTT10=
EXTT11=
EXTT12=
EXTT13=
EXTT14=
EXTT15=
EXTT16=
EXTT17=
EXTT18=
EXTT19=
PLAYORDER=
